<svg width="170" height="40" viewBox="0 0 170 40" fill="none" xmlns="http://www.w3.org/2000/svg">
<g clip-path="url(#clip0_7711_29535)">
<mask id="mask0_7711_29535" style="mask-type:luminance" maskUnits="userSpaceOnUse" x="0" y="20" width="41" height="17">
<path d="M40.833 20H0.833008V36.6667H40.833V20Z" fill="white"/>
</mask>
<g mask="url(#mask0_7711_29535)">
<path d="M39.684 16.8863L35.821 16.365C35.4857 15.3514 35.0048 14.3794 34.3858 13.4626L36.6782 10.8029C36.9962 10.4339 36.9475 9.92596 36.5637 9.60415L33.119 6.71606C32.7348 6.39381 32.129 6.35348 31.689 6.62006L28.5165 8.54185C27.4228 8.02285 26.2633 7.61991 25.0547 7.33881L24.4323 4.10008C24.346 3.6507 23.8833 3.32031 23.3403 3.32031H18.4682C17.9252 3.32031 17.4626 3.65066 17.3762 4.10008L16.754 7.33863C15.5455 7.61973 14.3861 8.0227 13.2923 8.54181L10.1197 6.62003C9.67969 6.35355 9.07379 6.39403 8.68981 6.71588L5.24486 9.60396C4.86096 9.92593 4.81241 10.4339 5.13042 10.8028L7.42269 13.4626C6.80356 14.3796 6.32289 15.3516 5.98759 16.3649L2.12453 16.8863C1.5885 16.9588 1.19434 17.3467 1.19434 17.8018V21.8865C1.19434 22.3418 1.58843 22.7295 2.12446 22.802L5.98759 23.3237C6.32306 24.3368 6.80362 25.3088 7.42269 26.2258L5.13042 28.8855C4.81241 29.2545 4.86092 29.7623 5.24486 30.0843L8.68981 32.9725C9.07372 33.2943 9.67956 33.3348 10.1197 33.0683L13.2923 31.1463C14.386 31.6653 15.5454 32.0683 16.754 32.3495L17.3762 35.5882C17.4626 36.0377 17.9252 36.368 18.4682 36.368H23.3403C23.8833 36.368 24.346 36.0377 24.4323 35.5882L25.0547 32.3495C26.2633 32.0683 27.4227 31.6653 28.5162 31.1465L31.689 33.0683C32.1292 33.335 32.735 33.2945 33.119 32.9725L36.5638 30.0845C36.9478 29.7625 36.9963 29.2547 36.6782 28.8857L34.3858 26.2258C35.0048 25.3092 35.4855 24.3372 35.821 23.3237L39.6842 22.802C40.2202 22.7295 40.6142 22.3417 40.6142 21.8865V17.8018C40.6142 17.3467 40.22 16.9588 39.684 16.8863ZM38.4022 21.0967L34.7503 21.5898C34.3042 21.65 33.9467 21.9317 33.8473 22.3013C33.515 23.536 32.9365 24.706 32.1277 25.7783C31.8862 26.0987 31.9015 26.5098 32.1662 26.817L34.3335 29.3317L32.2208 31.1025L29.2213 29.2857C28.855 29.0638 28.3643 29.051 27.9825 29.2535C26.703 29.9317 25.3078 30.4165 23.8352 30.6947C23.3945 30.7782 23.0583 31.0778 22.9865 31.4518L22.3983 34.5135H19.4103L18.8222 31.452C18.7503 31.078 18.4143 30.7783 17.9735 30.695C16.5011 30.4165 15.1056 29.9317 13.8257 29.2535C13.4438 29.051 12.9533 29.0638 12.5871 29.2857L9.58776 31.1025L7.47517 29.3315L9.64219 26.817C9.90682 26.5098 9.92212 26.0988 9.68069 25.7785C8.87177 24.7057 8.29334 23.5357 7.96132 22.3013C7.86186 21.9317 7.50434 21.65 7.05824 21.5898L3.40644 21.0967V18.5917L7.05824 18.0988C7.50442 18.0385 7.86199 17.7568 7.96139 17.3872C8.29321 16.1529 8.87167 14.9831 9.68076 13.9099C9.92219 13.5896 9.90691 13.1785 9.64226 12.8714L7.47524 10.3569L9.58782 8.58581L12.5872 10.4027C12.9534 10.6246 13.444 10.6374 13.8259 10.435C15.1059 9.75651 16.5014 9.27155 17.9733 8.99343C18.4143 8.91011 18.7503 8.61026 18.8222 8.23626L19.4103 5.17481H22.3983L22.9865 8.2364C23.0585 8.61036 23.3945 8.91023 23.8352 8.99351C25.3078 9.2718 26.7032 9.75675 27.9827 10.4349C28.3647 10.6374 28.8552 10.6246 29.2215 10.4027L32.221 8.58578L34.3333 10.3569L32.1662 12.8715C31.9017 13.1786 31.8863 13.5899 32.1278 13.9102C32.9368 14.9827 33.5153 16.1525 33.8473 17.3872C33.9467 17.7567 34.3043 18.0385 34.7503 18.0987L38.4022 18.5917V21.0967Z" fill="black"/>
</g>
<path d="M11.061 23.408C11.0365 23.408 10.9999 23.3835 10.951 23.3346C10.8776 23.2613 10.841 23.2246 10.841 23.2246C10.7676 23.1025 10.6821 22.9925 10.5843 22.8946C10.511 22.7725 10.4376 22.638 10.3643 22.4913C10.2665 22.2713 10.181 22.0391 10.1076 21.7946C10.0588 21.5258 9.99764 21.2691 9.92431 21.0246C9.77764 20.5846 9.63097 20.1325 9.48431 19.668C9.33764 19.2035 9.19097 18.7513 9.04431 18.3113C8.82431 17.6758 8.61654 17.0401 8.42097 16.4046C8.22542 15.769 8.00542 15.1334 7.76097 14.4979C7.41876 13.789 7.16209 13.0434 6.99097 12.2612C6.81987 11.479 6.55097 10.7334 6.18431 10.0246C6.18431 10.0246 6.18431 10.0123 6.18431 9.98789C6.15987 9.96344 6.14764 9.95123 6.14764 9.95123C5.95209 9.41344 5.75654 8.86344 5.56097 8.30123C5.36542 7.73901 5.16987 7.17678 4.97431 6.61456C4.92542 6.46789 4.87654 6.32123 4.82764 6.17456C4.77876 6.02789 4.74209 5.88123 4.71764 5.73456C4.69321 5.68568 4.68097 5.63678 4.68097 5.58789C4.68097 5.51456 4.66876 5.44123 4.64431 5.36789C4.59542 5.14789 4.64431 4.96456 4.79097 4.81789C4.93764 4.64678 5.08431 4.46344 5.23097 4.26789C5.37764 4.07234 5.56097 3.91344 5.78097 3.79123C5.90321 3.71789 6.01321 3.68123 6.11097 3.68123C6.23321 3.65678 6.35542 3.65678 6.47764 3.68123C6.59987 3.68123 6.69764 3.68123 6.77097 3.68123C6.89321 3.65678 7.01542 3.64456 7.13764 3.64456C7.25987 3.64456 7.38209 3.63234 7.50431 3.60789C8.70209 3.53456 9.89987 3.51011 11.0976 3.53456C11.1221 3.53456 11.171 3.53456 11.2443 3.53456C11.5376 3.53456 11.8188 3.55901 12.0876 3.60789C12.381 3.63234 12.6621 3.73011 12.931 3.90123C13.3221 4.17011 13.5788 4.52456 13.701 4.96456C13.8476 5.40456 13.9943 5.83234 14.141 6.24789C14.4099 6.85901 14.6176 7.49456 14.7643 8.15456C14.9354 8.81456 15.1188 9.46234 15.3143 10.0979L16.011 9.36456C16.1088 9.09568 16.1943 8.83901 16.2676 8.59456C16.4143 8.13011 16.5488 7.66568 16.671 7.20123C16.8176 6.73678 16.9643 6.27234 17.111 5.80789C17.2088 5.49011 17.3065 5.18456 17.4043 4.89123C17.502 4.57344 17.6977 4.31678 17.991 4.12123C18.2353 3.92568 18.492 3.81568 18.761 3.79123C19.0298 3.76678 19.311 3.75456 19.6043 3.75456C19.6777 3.75456 19.7387 3.75456 19.7877 3.75456C20.1298 3.73011 20.472 3.71789 20.8143 3.71789C21.1565 3.71789 21.4987 3.71789 21.841 3.71789C21.8898 3.71789 21.9632 3.71789 22.061 3.71789C22.1587 3.69344 22.2443 3.68123 22.3177 3.68123C22.4153 3.68123 22.5132 3.69344 22.611 3.71789C22.782 3.74234 22.9532 3.77901 23.1243 3.82789C23.2953 3.85234 23.4665 3.92568 23.6377 4.04789C23.9065 4.24344 24.102 4.48789 24.2243 4.78123C24.3465 5.05011 24.4565 5.33123 24.5543 5.62456C24.8965 6.38234 25.141 7.17678 25.2877 8.00789C25.4343 8.83901 25.6787 9.62123 26.021 10.3546L26.461 10.4646C26.5832 10.1468 26.6932 9.84123 26.791 9.54789C26.9132 9.23011 27.0353 8.91234 27.1577 8.59456C27.3043 8.15456 27.4387 7.71456 27.561 7.27456C27.6832 6.83456 27.7932 6.38234 27.891 5.91789C27.9643 5.60011 28.0377 5.29456 28.111 5.00123C28.2087 4.68344 28.4043 4.41456 28.6977 4.19456C28.942 4.02344 29.1987 3.92568 29.4677 3.90123C29.761 3.87678 30.042 3.86456 30.311 3.86456C30.3843 3.86456 30.4453 3.86456 30.4943 3.86456C31.6432 3.91344 32.7798 3.87678 33.9043 3.75456C34.1487 3.73011 34.381 3.70568 34.601 3.68123C34.8453 3.65678 35.0898 3.63234 35.3343 3.60789C35.3587 3.60789 35.4077 3.62011 35.481 3.64456C35.5787 3.66901 35.6277 3.68123 35.6277 3.68123C36.0187 3.87678 36.3365 4.10901 36.581 4.37789C36.8498 4.64678 36.9232 5.01344 36.801 5.47789C36.7765 5.60011 36.7398 5.72234 36.691 5.84456C36.6665 5.96678 36.6298 6.08901 36.581 6.21123C36.4587 6.57789 36.3365 6.93234 36.2143 7.27456C36.1165 7.61678 36.0065 7.95901 35.8843 8.30123C35.8843 8.32568 35.8598 8.36234 35.811 8.41123C35.762 8.48456 35.7377 8.52123 35.7377 8.52123C35.542 8.71678 35.3832 9.02234 35.261 9.43789C35.1387 9.82901 35.041 10.1468 34.9677 10.3912C34.821 10.8801 34.6377 11.5646 34.4177 12.4446C34.1977 13.3246 33.9532 14.2657 33.6843 15.2679C33.4398 16.2701 33.171 17.1991 32.8777 18.0546C32.5843 18.8858 32.291 19.4846 31.9977 19.8513C31.802 20.5358 31.631 21.2201 31.4843 21.9046C31.3865 22.2225 31.2887 22.5401 31.191 22.858C31.1177 23.1758 30.9587 23.4446 30.7143 23.6646C30.5677 23.7868 30.4087 23.8725 30.2377 23.9213C30.0665 23.9946 29.8953 24.0435 29.7243 24.068C29.5532 24.1168 29.3698 24.1413 29.1743 24.1413C29.0032 24.1413 28.832 24.1413 28.661 24.1413C28.4653 24.1413 28.331 24.1413 28.2577 24.1413C27.7932 24.1413 27.3287 24.1291 26.8643 24.1046C26.3998 24.1046 25.9353 24.0925 25.471 24.068C25.422 24.068 25.361 24.068 25.2877 24.068C24.9943 24.068 24.701 24.0435 24.4077 23.9946C24.1387 23.9701 23.882 23.8601 23.6377 23.6646C23.3932 23.4691 23.2098 23.2246 23.0877 22.9313C22.9653 22.6135 22.8432 22.308 22.721 22.0146C22.5498 21.5501 22.3665 21.098 22.171 20.658C21.9753 20.1935 21.792 19.7291 21.621 19.2646C21.4987 19.0201 21.3887 18.7513 21.291 18.458L20.5577 17.6146C20.362 18.1768 20.1543 18.7391 19.9343 19.3013C19.7143 19.8635 19.4943 20.4258 19.2743 20.988C19.1765 21.208 19.091 21.4401 19.0177 21.6846C18.9687 21.9291 18.8832 22.1613 18.761 22.3813C18.6877 22.5525 18.602 22.7235 18.5043 22.8946C18.431 23.0413 18.321 23.1758 18.1743 23.298C17.9053 23.518 17.5998 23.6401 17.2576 23.6646C16.9399 23.7135 16.6221 23.738 16.3043 23.738C16.2065 23.738 16.1088 23.738 16.011 23.738C15.9132 23.738 15.8154 23.738 15.7176 23.738C15.131 23.7625 14.5321 23.7868 13.921 23.8113C13.3099 23.8601 12.711 23.8968 12.1243 23.9213C12.0999 23.9213 12.0388 23.9091 11.941 23.8846C11.8676 23.8601 11.8188 23.848 11.7943 23.848L11.061 23.408ZM29.7977 4.34123L30.1277 4.74456C30.152 4.74456 30.1887 4.74456 30.2377 4.74456C30.3353 4.74456 30.4087 4.74456 30.4577 4.74456C30.8243 4.76901 31.2032 4.78123 31.5943 4.78123L31.6677 4.37789C31.6677 4.37789 31.6677 4.36568 31.6677 4.34123H29.7977ZM10.8776 4.41456L11.3543 5.07456L11.2076 4.41456C11.1588 4.41456 11.1099 4.41456 11.061 4.41456C11.061 4.41456 10.9999 4.41456 10.8776 4.41456ZM7.98097 4.48789L8.27431 5.69789L10.1443 4.41456H9.88764C9.25209 4.41456 8.61654 4.43901 7.98097 4.48789ZM11.4276 5.66123L10.5843 4.48789L8.67764 5.77123L11.4276 5.66123ZM12.6376 4.85456C12.5888 4.75678 12.5154 4.68344 12.4176 4.63456C12.3932 4.61011 12.3688 4.58568 12.3443 4.56123L11.6843 4.48789L12.6743 5.58789L12.6376 4.85456ZM7.24764 5.73456L7.57764 4.48789C7.45542 4.51234 7.33321 4.52456 7.21097 4.52456C7.08876 4.52456 6.96654 4.53678 6.84431 4.56123C6.79542 4.56123 6.73431 4.54901 6.66097 4.52456L7.24764 5.73456ZM34.3443 4.59789L34.9677 5.36789L35.1143 4.52456C34.8943 4.54901 34.6377 4.57344 34.3443 4.59789ZM22.6477 4.59789C22.6232 4.59789 22.5865 4.59789 22.5377 4.59789C22.5132 4.59789 22.4887 4.59789 22.4643 4.59789C22.4398 4.57344 22.4153 4.56123 22.391 4.56123L21.731 5.11123L23.5643 5.58789L22.6477 4.59789ZM35.921 5.11123L35.4077 4.56123L35.261 5.47789L35.921 5.11123ZM21.401 4.59789L21.4743 4.92789L21.9143 4.59789C21.8898 4.59789 21.8653 4.59789 21.841 4.59789C21.6943 4.59789 21.5477 4.59789 21.401 4.59789ZM5.70764 5.99123L6.18431 4.59789C6.06209 4.67123 5.93987 4.78123 5.81764 4.92789C5.71987 5.05011 5.62209 5.17234 5.52431 5.29456C5.52431 5.34344 5.52431 5.39234 5.52431 5.44123C5.54876 5.49011 5.56097 5.53901 5.56097 5.58789C5.58542 5.68568 5.63431 5.82011 5.70764 5.99123ZM21.2177 5.11123L21.1077 4.59789L20.2277 5.73456L21.2177 5.11123ZM19.3477 4.63456L19.6777 5.95456L20.741 4.59789C20.4477 4.59789 20.1298 4.61011 19.7877 4.63456C19.7387 4.63456 19.6653 4.63456 19.5677 4.63456C19.4698 4.63456 19.3965 4.63456 19.3477 4.63456ZM19.3843 6.02789L19.0543 4.63456C19.0053 4.63456 18.9687 4.63456 18.9443 4.63456L18.1377 5.40456C18.1132 5.45344 18.101 5.49011 18.101 5.51456L19.3843 6.02789ZM34.7477 5.55123L33.9777 4.63456C33.9532 4.63456 33.941 4.63456 33.941 4.63456L33.721 5.44123L34.7477 5.55123ZM5.92764 5.99123H7.06431L6.40431 4.63456L5.92764 5.99123ZM33.611 4.67123C33.2932 4.69568 32.9753 4.72011 32.6577 4.74456L33.4643 5.33123L33.611 4.67123ZM23.051 4.70789L23.4177 5.11123C23.3443 4.96456 23.2465 4.84234 23.1243 4.74456C23.0998 4.74456 23.0753 4.73234 23.051 4.70789ZM29.8343 4.74456C29.6387 4.74456 29.4798 4.76901 29.3577 4.81789L28.9543 5.29456C28.9298 5.36789 28.9053 5.45344 28.881 5.55123L30.8977 6.06456L29.8343 4.74456ZM33.2077 5.55123L32.181 4.78123C32.0587 4.78123 31.9365 4.78123 31.8143 4.78123L31.4843 6.10123L33.2077 5.55123ZM11.611 4.81789L11.7943 5.66123L12.4543 5.77123L11.611 4.81789ZM8.01764 5.84456L7.76097 4.85456L7.50431 5.95456L8.01764 5.84456ZM12.8943 5.22123L12.931 5.88123C12.931 5.88123 12.931 5.89344 12.931 5.91789C12.931 5.91789 12.9432 5.91789 12.9676 5.91789L13.8843 8.26456C13.811 7.97123 13.7254 7.69011 13.6276 7.42123C13.5543 7.12789 13.4565 6.85901 13.3343 6.61456C13.3343 6.61456 13.3343 6.60234 13.3343 6.57789C13.261 6.38234 13.1876 6.16234 13.1143 5.91789C13.0654 5.67344 12.9921 5.44123 12.8943 5.22123ZM23.6743 7.93456L23.821 6.17456C23.7965 6.10123 23.772 6.04011 23.7477 5.99123C23.7477 5.99123 23.7353 5.97901 23.711 5.95456C23.711 5.90568 23.6987 5.86901 23.6743 5.84456L21.5843 5.29456L23.6743 7.93456ZM21.3277 5.33123L19.751 6.35789L21.2543 8.22789L21.3277 5.33123ZM35.921 5.36789L35.2243 5.77123C35.2243 5.79568 35.212 5.82011 35.1877 5.84456L35.4443 6.90789C35.542 6.59011 35.6398 6.27234 35.7377 5.95456C35.762 5.85678 35.7865 5.75901 35.811 5.66123C35.8598 5.56344 35.8965 5.46568 35.921 5.36789ZM21.4743 8.26456L23.491 8.11789L21.5477 5.58789L21.4743 8.26456ZM34.931 5.80789L33.6477 5.66123C33.6477 5.68568 33.6353 5.71011 33.611 5.73456L33.501 7.75123L34.931 5.80789ZM19.4943 6.35789C19.4698 6.30901 19.4577 6.29678 19.4577 6.32123L18.0277 5.73456C18.0277 5.78344 18.0153 5.83234 17.991 5.88123C17.991 5.90568 17.9787 5.94234 17.9543 5.99123L18.5043 8.11789L19.4943 6.35789ZM33.281 5.73456L31.4477 6.35789C31.4477 6.35789 31.4353 6.37011 31.411 6.39456C31.411 6.39456 31.3987 6.40678 31.3743 6.43123L31.4843 7.75123L33.281 5.73456ZM31.1543 6.35789L28.8077 5.77123C28.8077 5.77123 28.7953 5.82011 28.771 5.91789L29.7243 7.78789L31.1543 6.35789ZM10.2176 7.64123C10.2176 7.61678 10.2176 7.60456 10.2176 7.60456L11.5376 5.88123L8.38431 6.02789L10.2176 7.64123ZM12.6743 6.02789L11.7943 5.91789L12.3076 7.71456L12.6743 6.02789ZM31.741 7.78789L33.281 7.86123L33.3543 5.99123L31.741 7.78789ZM28.6977 6.24789C28.6977 6.29678 28.6977 6.33344 28.6977 6.35789L28.5143 5.99123L27.5977 8.48456L28.1477 8.30123C28.2453 7.98344 28.331 7.66568 28.4043 7.34789C28.502 7.03011 28.5998 6.70011 28.6977 6.35789L29.541 7.89789L28.6977 6.24789ZM7.54097 7.78789L8.09097 6.06456L7.43097 6.17456C7.43097 6.19901 7.40654 6.22344 7.35764 6.24789L7.54097 7.78789ZM35.0043 6.06456L33.7943 7.75123L35.261 7.38456C35.2853 7.33568 35.2977 7.29901 35.2977 7.27456L35.0043 6.06456ZM10.4743 7.64123L12.1243 7.97123L11.611 6.13789L10.4743 7.64123ZM5.85431 6.21123L6.18431 7.31123L7.13764 6.21123H5.85431ZM7.72431 7.93456L9.88764 7.64123L8.27431 6.21123L7.72431 7.93456ZM12.8576 6.24789L12.4543 8.08123C12.4543 8.08123 12.4665 8.09344 12.491 8.11789L12.8943 6.35789L13.811 8.44789L12.8576 6.24789ZM24.371 7.20123L24.1143 6.39456L24.0777 6.79789C24.0532 6.72456 24.0287 6.66344 24.0043 6.61456L23.9677 7.82456L24.0777 6.79789C24.102 6.89568 24.1265 6.99344 24.151 7.09123C24.1998 7.16456 24.2732 7.20123 24.371 7.20123ZM17.2576 8.37456L18.2843 8.19123L17.8443 6.43123C17.7465 6.74901 17.6487 7.07901 17.551 7.42123C17.4532 7.73901 17.3554 8.05678 17.2576 8.37456ZM6.40431 7.42123L7.32097 7.86123L7.17431 6.50456L6.40431 7.42123ZM19.641 6.54123L18.7243 8.15456L20.9977 8.26456L19.641 6.54123ZM31.191 6.65123L30.0177 7.82456L31.2643 7.78789L31.191 6.65123ZM24.3343 7.67789L23.9677 8.22789L24.4077 9.36456L24.3343 7.67789ZM33.6477 8.11789L34.3443 9.32789C34.5887 8.66789 34.8332 8.21568 35.0777 7.97123C35.102 7.87344 35.1265 7.78789 35.151 7.71456L33.6477 8.11789ZM7.13764 9.36456L7.35764 8.19123L6.44097 7.78789L7.13764 9.36456ZM7.76097 8.22789L9.15431 10.2079L9.99764 7.93456L7.76097 8.22789ZM10.5843 7.97123L11.5743 9.21789L12.1243 8.26456L10.5843 7.97123ZM11.3543 9.40123L10.2543 8.04456L9.44764 10.2446L11.3543 9.40123ZM31.7043 8.08123L33.1343 10.3179L33.281 8.15456L31.7043 8.08123ZM30.3843 10.4646L29.5777 8.26456L28.1477 9.80456L30.3843 10.4646ZM27.9277 9.62123L29.1743 8.26456L28.0743 8.55789C28.0498 8.68011 28.0132 8.79011 27.9643 8.88789C27.9153 9.01011 27.8665 9.15678 27.8177 9.32789L27.9277 9.62123ZM32.951 10.6112L31.4477 8.26456L30.7877 10.5379L32.951 10.6112ZM13.0043 9.32789L13.591 8.59456L12.601 8.37456L13.0043 9.32789ZM21.5477 8.55789L22.0243 9.54789L23.3443 8.41123L21.5477 8.55789ZM19.8243 9.69456L20.9977 8.55789L18.7977 8.44789L19.8243 9.69456ZM23.711 8.48456L22.3177 9.69456L24.371 10.0612L23.711 8.48456ZM12.3076 8.48456L11.831 9.36456L12.7476 9.43789L12.3076 8.48456ZM17.6243 9.98789L18.2477 8.48456L17.1476 8.70456C17.1476 8.75344 17.1354 8.81456 17.111 8.88789L17.6243 9.98789ZM8.82431 10.2446L7.57764 8.48456L7.39431 9.76789L8.82431 10.2446ZM34.0143 10.2812C34.0632 10.0857 34.1243 9.89011 34.1977 9.69456L33.5377 8.52123L33.391 10.5379L34.0143 10.2812ZM19.5677 9.80456L18.5043 8.59456L17.881 10.1712L19.5677 9.80456ZM21.7677 9.62123L21.291 8.66789L20.191 9.73123L21.7677 9.62123ZM13.811 8.77789L13.1876 9.58456L14.471 10.2812C14.4221 10.159 14.3732 10.0246 14.3243 9.87789L13.811 8.77789ZM24.6277 8.85123L24.7377 10.0979L24.9943 10.1712C24.921 9.95123 24.8477 9.73123 24.7743 9.51123C24.7253 9.29123 24.6765 9.07123 24.6277 8.85123ZM17.4043 10.2446L16.9643 9.29123C16.9154 9.46234 16.8543 9.63344 16.781 9.80456C16.7321 9.97568 16.6832 10.1468 16.6343 10.3179L17.4043 10.2446ZM12.821 9.69456L11.6843 9.58456L12.5276 11.8946L12.821 9.69456ZM13.1143 9.76789L13.811 11.8579L14.6543 10.8679C14.6543 10.8434 14.6543 10.819 14.6543 10.7946C14.6299 10.7457 14.6054 10.6846 14.581 10.6112L13.1143 9.76789ZM15.4243 10.3546C15.4243 10.4034 15.4365 10.4401 15.461 10.4646H15.6443C15.6932 10.3668 15.7299 10.269 15.7543 10.1712C15.7788 10.0734 15.8154 9.96344 15.8643 9.84123L15.4243 10.3546ZM11.5743 9.87789L10.621 12.3712L12.381 12.0779L11.5743 9.87789ZM30.4577 10.7579C30.4577 10.7334 30.4577 10.7212 30.4577 10.7212L28.0377 10.0246L29.321 12.4079L30.4577 10.7579ZM9.00764 10.5379L7.39431 10.0246L7.65097 11.3446L9.00764 10.5379ZM18.5777 12.2612L19.6777 10.0246L17.771 10.4279C17.7465 10.4279 17.7343 10.4279 17.7343 10.4279L18.5777 12.2612ZM27.9643 12.0412L27.8177 10.0246L27.451 10.3179C27.4265 10.4401 27.3898 10.5623 27.341 10.6846C27.292 10.7823 27.2432 10.8923 27.1943 11.0146L27.9643 12.0412ZM20.5943 12.6279L22.4277 11.5646L21.951 10.1346L20.5943 12.6279ZM13.0043 10.2446L12.7476 12.0046L13.591 11.8946L13.0043 10.2446ZM24.7377 10.3546L25.0677 10.3912C25.1165 10.5379 25.1777 10.6723 25.251 10.7946C25.2998 10.9657 25.3487 11.149 25.3977 11.3446C25.471 11.5157 25.532 11.6868 25.581 11.8579L26.1677 11.3079C26.192 11.2101 26.2165 11.1246 26.241 11.0512C26.2653 11.0757 26.2777 11.1123 26.2777 11.1612L26.7177 10.7212L26.3877 10.6479C26.412 10.6234 26.4243 10.6112 26.4243 10.6112L26.0943 10.5379C26.0943 10.5623 26.0943 10.5868 26.0943 10.6112L25.0677 10.3912C25.0677 10.3668 25.0553 10.3423 25.031 10.3179L24.7743 10.2812C24.7743 10.3057 24.762 10.3301 24.7377 10.3546ZM18.7977 12.3712L20.0443 12.7746L19.751 10.4279L18.7977 12.3712ZM16.2676 11.8579C16.2676 11.8334 16.2799 11.8212 16.3043 11.8212L17.441 10.4646L16.561 10.5746C16.4876 10.7701 16.4143 10.9779 16.341 11.1979C16.2921 11.3934 16.2676 11.6134 16.2676 11.8579ZM24.5543 10.4646L22.9777 11.5646L25.031 12.0779L24.5543 10.4646ZM28.1843 12.1879L29.0277 12.3346L28.0743 10.5379L28.1843 12.1879ZM33.5377 11.7846C33.6598 11.3446 33.782 10.9412 33.9043 10.5746L33.391 10.7946C33.391 10.819 33.3787 10.8434 33.3543 10.8679L33.5377 11.7846ZM26.241 11.0512C26.192 10.9046 26.1432 10.7579 26.0943 10.6112L26.3877 10.6479C26.3632 10.7212 26.3387 10.7946 26.3143 10.8679C26.2898 10.9168 26.2653 10.9779 26.241 11.0512ZM16.5243 11.8579L18.321 12.2246L17.5877 10.6112L16.5243 11.8579ZM10.071 12.2979L9.15431 10.7212L7.79764 11.5279L10.071 12.2979ZM31.631 12.6646L33.0977 10.8312L30.7143 10.7579L31.631 12.6646ZM29.5777 12.4446L31.3377 12.6279L30.5677 10.9779L29.5777 12.4446ZM31.9243 12.6646L33.3177 12.5912C33.3665 12.469 33.4032 12.359 33.4277 12.2612L33.171 11.0879L31.9243 12.6646ZM14.1043 11.8579H14.9476C14.8988 11.7357 14.8621 11.6134 14.8376 11.4912C14.8132 11.369 14.7765 11.2468 14.7276 11.1246L14.1043 11.8579ZM26.7543 12.1512H27.7443L27.121 11.2712C27.0477 11.4179 26.9865 11.5646 26.9377 11.7112C26.8887 11.8579 26.8277 12.0046 26.7543 12.1512ZM8.71431 14.4979L10.1443 12.6279L7.76097 11.8212C7.88321 12.2123 8.00542 12.6034 8.12764 12.9946C8.24987 13.3857 8.39654 13.7646 8.56764 14.1312C8.56764 14.1312 8.56764 14.1434 8.56764 14.1679C8.61654 14.2657 8.66542 14.3757 8.71431 14.4979ZM22.061 14.4612L22.4277 11.9312L20.4843 13.0312L22.061 14.4612ZM22.6843 12.0412L22.3543 14.6079L24.261 14.4612L22.6843 12.0412ZM16.011 12.1879C15.9865 12.2368 15.9743 12.3101 15.9743 12.4079L16.0476 12.1146C16.0232 12.1879 16.011 12.2123 16.011 12.1879ZM14.031 12.1512L15.4976 14.7912L15.901 12.8846C15.8276 13.0068 15.7054 13.0679 15.5343 13.0679C15.3143 13.0679 15.1799 13.0068 15.131 12.8846C15.1065 12.7379 15.0943 12.6034 15.0943 12.4812C15.0699 12.3346 15.0576 12.2246 15.0576 12.1512L15.021 12.1146L14.031 12.1512ZM16.561 12.1879L18.101 14.8279L18.431 12.5546L16.561 12.1879ZM12.7476 12.2979L13.261 14.2412L13.591 12.1879L12.7476 12.2979ZM25.1043 12.3346L24.481 14.4246L25.141 12.4079C25.141 12.3834 25.1287 12.3712 25.1043 12.3712C25.1043 12.3712 25.1043 12.359 25.1043 12.3346ZM15.7543 15.0479L17.9177 15.1212L16.341 12.3712L15.7543 15.0479ZM10.5476 12.6646L10.4743 14.1679L12.161 12.4079L10.5476 12.6646ZM13.481 14.7912L15.3143 15.0112L13.8476 12.4446L13.481 14.7912ZM25.5077 12.4446L26.6443 14.6079L27.781 12.4446H26.7177C26.7177 12.4446 26.7177 12.4568 26.7177 12.4812C26.6932 12.6279 26.6565 12.7623 26.6077 12.8846C26.5587 13.0068 26.4365 13.0679 26.241 13.0679C26.0453 13.0679 25.9232 13.0068 25.8743 12.8846C25.8253 12.7623 25.7887 12.6279 25.7643 12.4812C25.7643 12.4568 25.7643 12.4446 25.7643 12.4446H25.5077ZM10.5843 14.4246L13.1143 14.7546L12.491 12.4812L10.5843 14.4246ZM28.221 12.4812L28.441 14.2779L29.101 12.6646L28.221 12.4812ZM24.701 14.5712L26.461 14.7179L24.701 14.4979L25.251 12.4812L24.701 14.5712ZM31.2643 12.9212L29.541 12.7379L30.091 14.1312L31.2643 12.9212ZM19.091 12.7746L20.191 13.9846L20.081 13.1046L19.091 12.7746ZM28.1843 14.6812L27.9643 12.7746L26.901 14.7546L28.1843 14.6812ZM18.3577 15.0479L20.1543 14.3512L18.6877 12.7746L18.3577 15.0479ZM31.9977 12.9579L33.0243 13.8012C33.0977 13.4834 33.171 13.1779 33.2443 12.8846L31.9977 12.9579ZM29.871 14.2779L29.321 12.9579L28.6243 14.6079L29.871 14.2779ZM32.951 14.1312L31.5943 12.9946L30.421 14.2412L32.951 14.1312ZM8.89764 14.7179L10.1443 14.4246L10.2176 12.9946L8.89764 14.7179ZM21.6943 14.4979L20.411 13.3612L20.5577 14.3146L21.6943 14.4979ZM32.731 14.9746C32.7553 14.8768 32.7798 14.779 32.8043 14.6812C32.8287 14.5834 32.8532 14.4734 32.8777 14.3512L30.201 14.4612L31.4843 16.6246L32.731 14.9746ZM29.9077 14.4979L28.551 14.8646L29.1377 16.1479L29.9077 14.4979ZM20.1177 14.6079L18.321 15.3046C18.321 15.329 18.3087 15.3534 18.2843 15.3779L18.541 16.2212L20.1177 14.6079ZM21.9877 14.7912L21.1077 14.6446C21.1565 14.6934 21.181 14.7668 21.181 14.8646C21.2053 14.9379 21.2298 15.0234 21.2543 15.1212C21.2543 15.1212 21.2543 15.1334 21.2543 15.1579C21.2787 15.1579 21.2787 15.1946 21.2543 15.2679C21.2543 15.3412 21.2665 15.3901 21.291 15.4146C21.291 15.4634 21.3032 15.5246 21.3277 15.5979L21.9877 14.7912ZM11.7943 17.2113L13.151 15.0112L10.4376 14.6446L11.7943 17.2113ZM8.86097 14.9379C8.90987 15.109 8.95876 15.2801 9.00764 15.4512C9.08097 15.5979 9.14209 15.7446 9.19097 15.8912L9.81431 17.0646L10.181 14.6446L8.86097 14.9379ZM22.281 14.8279L23.3077 16.7346L24.4077 14.6812L22.281 14.8279ZM30.0543 14.7179L29.321 16.2946L31.1543 16.6246L30.0543 14.7179ZM25.4343 17.1013L26.4977 15.0112L24.6643 14.7912L25.4343 17.1013ZM20.2277 14.8279L18.761 16.3312L19.8977 16.7713C19.922 16.6735 19.9465 16.5757 19.971 16.4779C20.0198 16.3557 20.0565 16.2334 20.081 16.1112L20.2277 14.8279ZM27.5243 16.6246L28.1843 14.9012L26.7543 14.9746L27.5243 16.6246ZM23.5277 16.7713L25.2143 17.1013L24.481 14.9746L23.5277 16.7713ZM9.99764 17.2846L11.5376 17.2113L10.3643 14.9746L9.99764 17.2846ZM23.051 16.7346L22.1343 15.0112L21.401 15.8179C21.4498 15.989 21.4987 16.1601 21.5477 16.3312C21.5965 16.4779 21.6453 16.6368 21.6943 16.808L23.051 16.7346ZM15.4243 15.2679L13.4076 15.0479L13.7743 17.1013L15.4243 15.2679ZM28.331 15.1212L27.781 16.7713L28.3677 15.1946L28.991 16.3679L28.331 15.1212ZM25.691 17.1013L27.341 16.808L26.6443 15.2312L25.691 17.1013ZM15.681 15.2679L16.5243 16.8813L17.991 15.3412L15.681 15.2679ZM13.2243 15.3412L12.051 17.2113L13.5543 17.1013L13.2243 15.3412ZM15.5343 15.4512L14.1043 17.0646L16.231 16.918L15.5343 15.4512ZM32.5843 15.5246L31.8877 16.4779L32.401 16.2579C32.4498 16.0623 32.511 15.8179 32.5843 15.5246ZM18.101 15.5612L16.9643 16.7346L18.321 16.2579L18.101 15.5612ZM9.74097 18.568V17.6146C9.74097 17.5901 9.72876 17.5658 9.70431 17.5413C9.72876 17.5658 9.72876 17.5658 9.70431 17.5413C9.70431 17.5413 9.70431 17.5291 9.70431 17.5046L9.08097 16.5146L9.74097 18.568ZM29.3577 16.5879L30.3843 19.008L31.2277 16.918L29.3577 16.5879ZM16.6343 17.1746L17.0376 19.1913L18.2477 16.6246L16.6343 17.1746ZM28.9177 16.6246L27.781 16.9913L28.6977 18.678L28.9177 16.6246ZM32.3277 16.6246L31.631 16.8813L31.9977 17.7613C32.022 17.688 32.0343 17.6268 32.0343 17.578C32.0587 17.5046 32.0832 17.4435 32.1077 17.3946C32.1565 17.1991 32.2298 16.9425 32.3277 16.6246ZM19.8243 17.0646L18.8343 16.6612L19.531 17.8713C19.6043 17.6513 19.6777 17.4435 19.751 17.248C19.7753 17.1991 19.7998 17.138 19.8243 17.0646ZM18.5043 16.698L17.2943 19.3746L19.3843 18.348C19.3843 18.2991 19.3965 18.2625 19.421 18.238L18.5043 16.698ZM30.1643 19.1913L29.1743 16.9546L28.9177 19.0446L30.1643 19.1913ZM22.501 19.1546L23.1243 17.028L21.7677 17.1013C21.8653 17.4191 21.9632 17.7368 22.061 18.0546C22.1832 18.348 22.3053 18.6413 22.4277 18.9346C22.452 19.008 22.4765 19.0813 22.501 19.1546ZM24.591 18.7513L25.2143 17.3946L23.601 17.1013L24.591 18.7513ZM25.6177 17.3946L25.801 18.7146L27.1943 17.138L25.6177 17.3946ZM21.1077 17.9446C21.0832 17.798 21.0343 17.6635 20.961 17.5413C20.912 17.4191 20.8265 17.2846 20.7043 17.138C20.6798 17.2358 20.6553 17.3213 20.631 17.3946L21.1077 17.9446ZM28.5143 19.008L27.5243 17.1746L26.021 18.898L28.5143 19.008ZM31.8143 18.348C31.8143 18.2991 31.8265 18.2501 31.851 18.2013L31.4477 17.2113L30.6777 19.008L31.8143 18.348ZM24.4077 19.008L23.3443 17.248L22.721 19.5213L24.4077 19.008ZM13.5176 18.8613L13.591 17.3946L12.1243 17.468L13.5176 18.8613ZM16.8176 19.448L16.3776 17.5046L15.6443 19.008L16.8176 19.448ZM11.5376 17.5046L10.2176 17.578L11.0976 18.2746L11.5376 17.5046ZM13.151 18.898L11.831 17.578L11.3543 18.4213L13.151 18.898ZM15.0943 18.9713L13.8843 17.6146L13.811 19.0446L15.0943 18.9713ZM10.841 18.458L9.96097 17.7246V18.238C10.0099 18.3846 10.0588 18.5558 10.1076 18.7513L10.841 18.458ZM25.5077 18.898L25.361 17.798L24.8477 18.9346L25.5077 18.898ZM12.271 20.6946L13.481 19.228L11.281 18.6046L12.271 20.6946ZM10.4376 19.778L10.9876 18.6413L10.181 18.9346C10.2299 19.0813 10.2665 19.228 10.291 19.3746C10.3399 19.4968 10.3888 19.6313 10.4376 19.778ZM19.2377 18.6413C19.1153 18.9835 18.981 19.3258 18.8343 19.668C18.712 19.9858 18.5898 20.3158 18.4677 20.658C18.4187 20.7558 18.431 20.8658 18.5043 20.988L19.2377 18.6413ZM31.6677 18.678L30.531 19.3746L30.971 20.2546C31.0443 20.0101 31.1177 19.7535 31.191 19.4846C31.191 19.4846 31.2032 19.4601 31.2277 19.4113C31.252 19.3868 31.2643 19.3746 31.2643 19.3746C31.411 19.228 31.5453 18.9958 31.6677 18.678ZM10.5476 20.0713C10.5721 20.1691 10.5965 20.2546 10.621 20.328L11.9776 20.6213L11.1343 18.8246L10.5476 20.0713ZM27.8543 21.3913L28.6243 19.228L25.8743 19.118L27.8543 21.3913ZM13.9576 21.428L15.2776 19.1546L13.811 19.2646C13.7865 19.2646 13.7621 19.2768 13.7376 19.3013L13.9576 21.428ZM23.5643 21.4646L24.4077 19.228L22.7577 19.7413C22.8065 19.888 22.8677 20.0468 22.941 20.218C23.0143 20.3891 23.0877 20.548 23.161 20.6946L23.5643 21.4646ZM16.891 19.778C16.891 19.7535 16.8788 19.7291 16.8543 19.7046L15.681 19.2646L16.8543 20.6213L16.891 19.778ZM29.6877 21.318L30.201 19.4113L28.881 19.2646L29.6877 21.318ZM14.2143 21.3913L16.671 20.7313L15.461 19.338L14.2143 21.3913ZM25.4343 21.0246L27.5243 21.318L25.7643 19.3746L25.4343 21.0246ZM25.1777 21.098L24.591 19.4113L23.8577 21.5746L24.6277 19.5213L25.1777 21.098ZM12.4543 20.8046L13.7376 21.3913L13.5543 19.558L12.4543 20.8046ZM28.111 21.3913L29.5043 21.5013L28.771 19.558L28.111 21.3913ZM30.3843 19.668L29.9077 21.5013L30.421 19.778L30.861 20.658C30.812 20.8291 30.7753 21.0001 30.751 21.1713L31.0443 21.0613L30.861 20.658C30.861 20.6335 30.8732 20.6091 30.8977 20.5846L30.3843 19.668ZM17.0743 20.6946L18.101 20.9146L17.111 19.998L17.0743 20.6946ZM11.391 22.4913L12.051 20.9513L10.731 20.658C10.731 20.6825 10.7432 20.7191 10.7676 20.768C10.841 20.988 10.9021 21.2201 10.951 21.4646C10.9999 21.6846 11.0732 21.9046 11.171 22.1246C11.2199 22.2225 11.2932 22.3446 11.391 22.4913ZM17.6977 22.528C17.771 22.4546 17.8198 22.3813 17.8443 22.308C17.8932 22.2101 17.942 22.1125 17.991 22.0146C18.0398 21.8925 18.0887 21.7701 18.1377 21.648C18.1865 21.5258 18.2232 21.3913 18.2477 21.2446L17.1476 20.988L17.6977 22.528ZM16.6343 21.0246L14.2143 21.7213L15.351 22.8946C15.4243 22.8701 15.5343 22.858 15.681 22.858L16.6343 21.0246ZM13.701 21.7213L12.4543 21.098L12.8576 22.968L13.701 21.7213ZM17.4776 22.7113L16.891 21.1713L16.011 22.858C16.0599 22.858 16.121 22.858 16.1943 22.858C16.4143 22.858 16.6343 22.858 16.8543 22.858C17.0988 22.858 17.3065 22.8091 17.4776 22.7113ZM12.5643 23.0046L12.1976 21.318L11.611 22.748L12.161 23.0413C12.2832 23.0413 12.4176 23.0291 12.5643 23.0046ZM26.3143 22.418L27.4877 21.6113L25.5443 21.318L26.3143 22.418ZM26.021 22.528L25.251 21.3913L24.371 22.6746L26.021 22.528ZM24.8843 21.428L23.821 21.7946L24.1143 22.528L24.8843 21.428ZM30.6777 21.428L29.9077 21.7213L30.3477 22.7113C30.421 22.5646 30.4698 22.4058 30.4943 22.2346C30.5432 22.0391 30.5798 21.8558 30.6043 21.6846C30.6287 21.6113 30.6532 21.5258 30.6777 21.428ZM29.431 21.7946L28.1843 21.6846L28.771 22.528L29.431 21.7946ZM28.4777 22.6013L27.8543 21.7213L26.7177 22.528L28.4777 22.6013ZM14.9476 22.8946L13.9576 21.868L13.1876 23.0046C13.481 22.9801 13.7743 22.968 14.0676 22.968C14.361 22.9435 14.6543 22.9191 14.9476 22.8946ZM30.091 22.8946L29.6877 21.9046L29.0277 22.6746L30.091 22.8946ZM28.4777 22.8213L26.571 22.7113L27.3777 23.188H27.6343L28.4777 22.8213ZM24.371 22.8946L24.6643 23.1513C24.7132 23.1758 24.7743 23.188 24.8477 23.188L25.801 22.748L24.371 22.8946ZM26.9377 23.188L26.2777 22.7846L25.361 23.188H26.9377ZM29.5777 23.2246C29.651 23.2001 29.7243 23.188 29.7977 23.188C29.871 23.1635 29.9443 23.1268 30.0177 23.078L29.101 22.8946L29.5777 23.2246ZM28.771 22.9313L28.1477 23.188H29.1377L28.771 22.9313Z" fill="black"/>
</g>
<path d="M61.368 28L56.374 12.468H59.806L63.458 24.414H62.116L65.68 12.468H68.386L71.95 24.414H70.63L74.26 12.468H77.67L72.676 28H69.97L66.384 16.054H67.66L64.074 28H61.368ZM83.004 28.242C81.904 28.242 80.9066 28 80.012 27.516C79.132 27.0173 78.4353 26.3427 77.922 25.492C77.4086 24.6413 77.152 23.688 77.152 22.632C77.152 21.576 77.4086 20.63 77.922 19.794C78.4353 18.958 79.132 18.298 80.012 17.814C80.892 17.3153 81.8893 17.066 83.004 17.066C84.1186 17.066 85.116 17.308 85.996 17.792C86.876 18.276 87.5726 18.9433 88.086 19.794C88.5993 20.63 88.856 21.576 88.856 22.632C88.856 23.688 88.5993 24.6413 88.086 25.492C87.5726 26.3427 86.876 27.0173 85.996 27.516C85.116 28 84.1186 28.242 83.004 28.242ZM83.004 25.184C83.488 25.184 83.9133 25.0813 84.28 24.876C84.6466 24.656 84.9253 24.3553 85.116 23.974C85.3213 23.578 85.424 23.1307 85.424 22.632C85.424 22.1333 85.3213 21.7007 85.116 21.334C84.9106 20.9527 84.6246 20.6593 84.258 20.454C83.906 20.234 83.488 20.124 83.004 20.124C82.5346 20.124 82.1166 20.234 81.75 20.454C81.3833 20.6593 81.0973 20.9527 80.892 21.334C80.6866 21.7153 80.584 22.1553 80.584 22.654C80.584 23.138 80.6866 23.578 80.892 23.974C81.0973 24.3553 81.3833 24.656 81.75 24.876C82.1166 25.0813 82.5346 25.184 83.004 25.184ZM90.5318 28V17.308H93.8978V28H90.5318ZM93.8978 22.126L92.4898 21.026C92.7684 19.7793 93.2378 18.8113 93.8978 18.122C94.5578 17.4327 95.4744 17.088 96.6478 17.088C97.1611 17.088 97.6084 17.1687 97.9898 17.33C98.3858 17.4767 98.7304 17.7113 99.0238 18.034L97.0218 20.564C96.8751 20.4027 96.6918 20.278 96.4718 20.19C96.2518 20.102 96.0024 20.058 95.7238 20.058C95.1664 20.058 94.7191 20.234 94.3818 20.586C94.0591 20.9233 93.8978 21.4367 93.8978 22.126ZM106.762 28L103.022 22.456L106.74 17.308H110.502L106.014 23.094L106.124 21.708L110.722 28H106.762ZM99.9204 28V12.028H103.286V28H99.9204ZM115.201 28.264C114.57 28.264 113.947 28.1833 113.331 28.022C112.73 27.8607 112.165 27.6333 111.637 27.34C111.124 27.032 110.684 26.68 110.317 26.284L112.231 24.348C112.583 24.7293 113.001 25.03 113.485 25.25C113.969 25.4553 114.497 25.558 115.069 25.558C115.465 25.558 115.766 25.4993 115.971 25.382C116.191 25.2647 116.301 25.1033 116.301 24.898C116.301 24.634 116.169 24.436 115.905 24.304C115.656 24.1573 115.333 24.0327 114.937 23.93C114.541 23.8127 114.123 23.688 113.683 23.556C113.243 23.424 112.825 23.2407 112.429 23.006C112.033 22.7713 111.71 22.4487 111.461 22.038C111.212 21.6127 111.087 21.0773 111.087 20.432C111.087 19.7427 111.263 19.1487 111.615 18.65C111.967 18.1367 112.466 17.7333 113.111 17.44C113.756 17.1467 114.512 17 115.377 17C116.286 17 117.122 17.1613 117.885 17.484C118.662 17.792 119.293 18.254 119.777 18.87L117.863 20.806C117.526 20.41 117.144 20.1313 116.719 19.97C116.308 19.8087 115.905 19.728 115.509 19.728C115.128 19.728 114.842 19.7867 114.651 19.904C114.46 20.0067 114.365 20.1607 114.365 20.366C114.365 20.586 114.49 20.762 114.739 20.894C114.988 21.026 115.311 21.1433 115.707 21.246C116.103 21.3487 116.521 21.4733 116.961 21.62C117.401 21.7667 117.819 21.9647 118.215 22.214C118.611 22.4633 118.934 22.8007 119.183 23.226C119.432 23.6367 119.557 24.1793 119.557 24.854C119.557 25.8953 119.161 26.724 118.369 27.34C117.592 27.956 116.536 28.264 115.201 28.264ZM127.543 28.22C126.825 28.22 126.165 28.0807 125.563 27.802C124.962 27.5233 124.471 27.142 124.089 26.658C123.708 26.1593 123.488 25.5947 123.429 24.964V20.454C123.488 19.8233 123.708 19.2513 124.089 18.738C124.471 18.2247 124.962 17.8213 125.563 17.528C126.165 17.2347 126.825 17.088 127.543 17.088C128.555 17.088 129.45 17.33 130.227 17.814C131.019 18.298 131.635 18.958 132.075 19.794C132.53 20.63 132.757 21.5833 132.757 22.654C132.757 23.7247 132.53 24.678 132.075 25.514C131.635 26.35 131.019 27.01 130.227 27.494C129.45 27.978 128.555 28.22 127.543 28.22ZM121.383 32.51V17.308H124.749V20.058L124.199 22.654L124.705 25.25V32.51H121.383ZM126.927 25.184C127.411 25.184 127.829 25.074 128.181 24.854C128.548 24.634 128.834 24.3333 129.039 23.952C129.245 23.5707 129.347 23.138 129.347 22.654C129.347 22.1553 129.245 21.7153 129.039 21.334C128.834 20.9527 128.548 20.6593 128.181 20.454C127.829 20.234 127.419 20.124 126.949 20.124C126.48 20.124 126.062 20.234 125.695 20.454C125.343 20.6593 125.065 20.9527 124.859 21.334C124.654 21.7153 124.551 22.1553 124.551 22.654C124.551 23.138 124.647 23.5707 124.837 23.952C125.043 24.3333 125.329 24.634 125.695 24.854C126.062 25.074 126.473 25.184 126.927 25.184ZM138.933 28.22C137.951 28.22 137.071 27.978 136.293 27.494C135.531 27.01 134.922 26.35 134.467 25.514C134.027 24.678 133.807 23.7247 133.807 22.654C133.807 21.5833 134.027 20.63 134.467 19.794C134.922 18.958 135.531 18.298 136.293 17.814C137.071 17.33 137.951 17.088 138.933 17.088C139.652 17.088 140.297 17.2273 140.869 17.506C141.456 17.7847 141.933 18.1733 142.299 18.672C142.666 19.156 142.871 19.7133 142.915 20.344V24.964C142.871 25.5947 142.666 26.1593 142.299 26.658C141.947 27.142 141.478 27.5233 140.891 27.802C140.305 28.0807 139.652 28.22 138.933 28.22ZM139.615 25.184C140.334 25.184 140.913 24.9493 141.353 24.48C141.793 23.996 142.013 23.3873 142.013 22.654C142.013 22.1553 141.911 21.7153 141.705 21.334C141.515 20.9527 141.236 20.6593 140.869 20.454C140.517 20.234 140.107 20.124 139.637 20.124C139.168 20.124 138.75 20.234 138.383 20.454C138.031 20.6593 137.745 20.9527 137.525 21.334C137.32 21.7153 137.217 22.1553 137.217 22.654C137.217 23.138 137.32 23.5707 137.525 23.952C137.731 24.3333 138.017 24.634 138.383 24.854C138.75 25.074 139.161 25.184 139.615 25.184ZM141.881 28V25.118L142.387 22.522L141.881 19.926V17.308H145.181V28H141.881ZM152.721 28.242C151.621 28.242 150.624 28 149.729 27.516C148.835 27.032 148.131 26.3647 147.617 25.514C147.104 24.6633 146.847 23.71 146.847 22.654C146.847 21.5833 147.104 20.63 147.617 19.794C148.145 18.9433 148.857 18.276 149.751 17.792C150.646 17.308 151.651 17.066 152.765 17.066C153.601 17.066 154.364 17.2127 155.053 17.506C155.757 17.7847 156.381 18.21 156.923 18.782L154.767 20.938C154.518 20.6593 154.225 20.454 153.887 20.322C153.565 20.19 153.191 20.124 152.765 20.124C152.281 20.124 151.849 20.234 151.467 20.454C151.101 20.6593 150.807 20.9527 150.587 21.334C150.382 21.7007 150.279 22.1333 150.279 22.632C150.279 23.1307 150.382 23.5707 150.587 23.952C150.807 24.3333 151.108 24.634 151.489 24.854C151.871 25.074 152.296 25.184 152.765 25.184C153.205 25.184 153.594 25.1107 153.931 24.964C154.283 24.8027 154.584 24.5827 154.833 24.304L156.967 26.46C156.41 27.0467 155.779 27.494 155.075 27.802C154.371 28.0953 153.587 28.242 152.721 28.242ZM163.488 28.242C162.329 28.242 161.295 28.0073 160.386 27.538C159.491 27.054 158.787 26.3867 158.274 25.536C157.76 24.6853 157.504 23.7247 157.504 22.654C157.504 21.5833 157.753 20.63 158.252 19.794C158.765 18.9433 159.454 18.276 160.32 17.792C161.185 17.308 162.16 17.066 163.246 17.066C164.302 17.066 165.233 17.2933 166.04 17.748C166.846 18.2027 167.477 18.8333 167.932 19.64C168.401 20.4467 168.636 21.3707 168.636 22.412C168.636 22.6027 168.621 22.808 168.592 23.028C168.577 23.2333 168.54 23.4753 168.482 23.754L159.264 23.776V21.466L167.052 21.444L165.6 22.412C165.585 21.796 165.49 21.29 165.314 20.894C165.138 20.4833 164.874 20.1753 164.522 19.97C164.184 19.75 163.766 19.64 163.268 19.64C162.74 19.64 162.278 19.7647 161.882 20.014C161.5 20.2487 161.2 20.586 160.98 21.026C160.774 21.466 160.672 22.0013 160.672 22.632C160.672 23.2627 160.782 23.8053 161.002 24.26C161.236 24.7 161.559 25.0447 161.97 25.294C162.395 25.5287 162.894 25.646 163.466 25.646C163.994 25.646 164.47 25.558 164.896 25.382C165.321 25.1913 165.695 24.9127 166.018 24.546L167.866 26.394C167.338 27.01 166.7 27.472 165.952 27.78C165.204 28.088 164.382 28.242 163.488 28.242Z" fill="#455A64"/>
<defs>
<clipPath id="clip0_7711_29535">
<rect width="40" height="40" fill="white"/>
</clipPath>
</defs>
</svg>
